<mxfile host="app.diagrams.net" agent="Mozilla/5.0 (Windows NT 10.0; Win64; x64) AppleWebKit/537.36 (KHTML, like Gecko) Chrome/131.0.0.0 Safari/537.36" version="25.0.1">
  <diagram name="Page-1" id="4nk0adCkyVjRdVhuNVjs">
    <mxGraphModel dx="684" dy="345" grid="0" gridSize="10" guides="1" tooltips="1" connect="1" arrows="1" fold="1" page="1" pageScale="1" pageWidth="850" pageHeight="1100" background="#ffffff" math="0" shadow="0">
      <root>
        <mxCell id="0" />
        <mxCell id="1" parent="0" />
        <mxCell id="41pfow4yXBDvhuGEHtAJ-1" value="Viewing Appointments" style="ellipse;whiteSpace=wrap;html=1;aspect=fixed;" parent="1" vertex="1">
          <mxGeometry x="240" y="110" width="90" height="90" as="geometry" />
        </mxCell>
        <mxCell id="41pfow4yXBDvhuGEHtAJ-5" value="" style="html=1;verticalAlign=bottom;endArrow=block;curved=0;rounded=0;" parent="1" source="41pfow4yXBDvhuGEHtAJ-1" target="41pfow4yXBDvhuGEHtAJ-6" edge="1">
          <mxGeometry x="-0.288" y="7" width="80" relative="1" as="geometry">
            <mxPoint x="360" y="160" as="sourcePoint" />
            <mxPoint x="440" y="160" as="targetPoint" />
            <mxPoint as="offset" />
            <Array as="points">
              <mxPoint x="396" y="115" />
            </Array>
          </mxGeometry>
        </mxCell>
        <mxCell id="3FWi6CW-oHw4jZ8Beorg-2" value="GP Conducts&lt;div&gt;Appointment&lt;/div&gt;" style="edgeLabel;html=1;align=center;verticalAlign=middle;resizable=0;points=[];" parent="41pfow4yXBDvhuGEHtAJ-5" vertex="1" connectable="0">
          <mxGeometry x="-0.4304" y="2" relative="1" as="geometry">
            <mxPoint x="25" y="-3" as="offset" />
          </mxGeometry>
        </mxCell>
        <mxCell id="41pfow4yXBDvhuGEHtAJ-6" value="In Appointment" style="ellipse;whiteSpace=wrap;html=1;aspect=fixed;" parent="1" vertex="1">
          <mxGeometry x="470" y="120" width="80" height="80" as="geometry" />
        </mxCell>
        <mxCell id="41pfow4yXBDvhuGEHtAJ-7" value="" style="html=1;verticalAlign=bottom;endArrow=block;curved=0;rounded=0;entryX=1;entryY=1;entryDx=0;entryDy=0;exitX=0;exitY=1;exitDx=0;exitDy=0;" parent="1" source="41pfow4yXBDvhuGEHtAJ-6" target="41pfow4yXBDvhuGEHtAJ-1" edge="1">
          <mxGeometry x="0.2066" y="-9" width="80" relative="1" as="geometry">
            <mxPoint x="550" y="160" as="sourcePoint" />
            <mxPoint x="330" y="190" as="targetPoint" />
            <mxPoint as="offset" />
            <Array as="points">
              <mxPoint x="405" y="209" />
            </Array>
          </mxGeometry>
        </mxCell>
        <mxCell id="3FWi6CW-oHw4jZ8Beorg-1" value="Appointment Complete&amp;nbsp;&lt;div&gt;or Overriden to ER&amp;nbsp;&lt;/div&gt;" style="edgeLabel;html=1;align=center;verticalAlign=middle;resizable=0;points=[];" parent="41pfow4yXBDvhuGEHtAJ-7" vertex="1" connectable="0">
          <mxGeometry x="0.0696" y="1" relative="1" as="geometry">
            <mxPoint x="8" y="-4" as="offset" />
          </mxGeometry>
        </mxCell>
      </root>
    </mxGraphModel>
  </diagram>
</mxfile>
